# xmcd CD database file
#
# Track frame offsets:
#	150
#	21552
#	46302
#	71956
#	95070
#	116250
#	133140
#	152248
#	172911
#	191282
#
# Disc length: 2755 seconds
#
# Revision: 0
# Processed by: cddbd v1.5PL3 Copyright (c) Steve Scherf et al.
# Submitted via: CDex 1.50Beta7
#
DISCID=8a0ac10a
DTITLE=ねぴあ軍団 - ねぴあ軍団プレミアムCD Vol.6 が、がお…。
DYEAR=1900
DGENRE=Game
TTITLE0=Extraneum
TTITLE1=月童 -moon child-
TTITLE2=絵空事 -Moon. Re/M-
TTITLE3=魂　星　輪　上　回　全
TTITLE4=にはは -観鈴ちんどろり濃厚風味？-
TTITLE5=鬼神楽 -cool edit-
TTITLE6=朝影 -Celtic Mix-
TTITLE7=オルゴール〜黄昏Fusion Mix〜
TTITLE8=あなたの横顔 -BossaRock Mix-
TTITLE9=桜雪
EXTD=
EXTT0=
EXTT1=
EXTT2=
EXTT3=
EXTT4=
EXTT5=
EXTT6=
EXTT7=
EXTT8=
EXTT9=
PLAYORDER=
